<?xml version="1.0" encoding="UTF-8"?>
<svg xmlns="http://www.w3.org/2000/svg" width="64" height="64" viewBox="0 0 64 64">
  <defs>
    <linearGradient id="g1" x1="0" x2="1" y1="0" y2="1">
      <stop offset="0" stop-color="#1e40af"/>
      <stop offset="1" stop-color="#7c3aed"/>
    </linearGradient>
  </defs>
  <rect width="64" height="64" rx="12" fill="#ffffff"/>
  <!-- Waves -->
  <path d="M8 26q4 4 8 0t8 0t8 0t8 0t8 0" fill="none" stroke="#1e3a8a" stroke-width="3" stroke-linecap="round"/>
  <path d="M8 34q4 4 8 0t8 0t8 0t8 0t8 0" fill="none" stroke="#1e3a8a" stroke-width="3" stroke-linecap="round"/>
  <path d="M8 42q4 4 8 0t8 0t8 0t8 0t8 0" fill="none" stroke="#1e3a8a" stroke-width="3" stroke-linecap="round"/>
  <!-- Star -->
  <g transform="translate(44 12) scale(0.9)">
    <path d="M6 0l1.6 3.4L12 5l-3.4 1.6L7 10l-1.6-3.4L2 5l3.4-1.6L6 0z" fill="#f59e0b"/>
    <circle cx="12" cy="-1" r="1.5" fill="#f59e0b"/>
  </g>
</svg>
